<?xml version="1.0" encoding="UTF-8"?>
<svg id="Layer_1" xmlns="http://www.w3.org/2000/svg" version="1.1" viewBox="0 0 34 34">
  <!-- Generator: Adobe Illustrator 29.3.1, SVG Export Plug-In . SVG Version: 2.1.0 Build 151)  -->
  <path d="M14,34H0V0h34v34h-14c.32-1.95-.45-11.59,0-12.01.97-.91,5.3,2.67,4.03-4.41-.29-1.6-5.65,1.87-4.06-4.91.39-1.65,4.73-1,5.1-2.22,1.33-4.41-4.24-5.14-7.42-3.33-5,2.85-3.23,9.51-3.63,9.9-.35.34-3.66-.36-4.02-.01-.18.17-.18,4.84,0,5.01.36.34,3.65-.36,4.02-.01.44.41-.33,10.06,0,12.01Z" fill="#1a77f1"/>
  <path d="M14,34c-.32-1.95.45-11.59,0-12.01-.37-.34-3.66.36-4.02.01-.18-.17-.18-4.84,0-5.01.36-.34,3.67.36,4.02.01.39-.39-1.38-7.05,3.63-9.9,3.17-1.81,8.75-1.08,7.42,3.33-.37,1.22-4.71.57-5.1,2.22-1.59,6.78,3.77,3.31,4.06,4.91,1.27,7.09-3.06,3.5-4.03,4.41-.44.41.33,10.06,0,12.01h-6Z" fill="#ecf3fd"/>
</svg>