<?xml version="1.0" encoding="UTF-8"?>
<svg id="Layer_1" xmlns="http://www.w3.org/2000/svg" version="1.1" viewBox="0 0 225 225">
  <!-- Generator: Adobe Illustrator 29.3.1, SVG Export Plug-In . SVG Version: 2.1.0 Build 151)  -->
  <defs>
    <style>
      .st0 {
        font-family: MyriadPro-Regular, 'Myriad Pro';
        font-size: 4.6px;
      }

      .st1 {
        fill: #ff7f00;
      }

      .st2 {
        fill: #ce8967;
      }

      .st3 {
        fill: #fae3ab;
      }

      .st4 {
        fill: #e8823d;
      }

      .st5 {
        fill: #2387c3;
      }

      .st6 {
        fill: #fc3838;
      }

      .st7 {
        fill: #fff;
      }

      .st7, .st8 {
        fill-rule: evenodd;
      }

      .st9 {
        fill: #1f9aff;
      }

      .st10 {
        fill: #ffaf5f;
      }

      .st11 {
        fill: #f0915a;
      }

      .st8 {
        fill: #d7e6f0;
      }

      .st12 {
        fill: #207ab0;
      }

      .st13 {
        fill: #555a6e;
      }

      .st14 {
        fill: #0f4f78;
      }

      .st15 {
        fill: #3d4146;
      }

      .st16 {
        fill: #ffa161;
      }

      .st17 {
        fill: #efefef;
        stroke: #000;
        stroke-miterlimit: 10;
      }

      .st18 {
        fill: #60656c;
      }
    </style>
  </defs>
  <path class="st17" d="M188.5,97.8c.2,39.4.4,78.8.5,118.2H36V9c40.4,0,80.8,0,121.2,0,20.6,21.6,30.9,32.3,30.9,32.3,0,0-10.2-10.7-30.5-32-.1-.2-.3-.4-.4-.3,0,0-.1.2,0,.5.1,5.3.2,10.5.3,15.9,0,5.3.2,10.6.2,15.9,10.1,0,20.3,0,30.4.1.2.2.5.4.7.6v.2c0,7.4-.1,14.7-.2,22.1,0,11.2-.2,22.4-.2,33.5Z"/>
  <path class="st17" d="M87.7,78.7c0,0,0-.3-.3-.4-.1-.1-.2-.2-.3-.2-7.1,0-14.2,0-21.3,0s-10.4,0-15.7,0c-.2,0-.4,0-.5.2-.1.2,0,.4,0,.4,0,2,0,4,0,6,0,.1,0,.3.2.5.2.2.4.2.5.2.5,0,6.9,0,15.8,0,2,0,20.4.1,20.9,0,.2,0,.4-.2.4-.2s.1-.1.2-.3c.2-.3.2-2.8,0-6.3Z"/>
  <path class="st17" d="M131.9,78.7c0,0,0-.3-.3-.4-.1-.1-.2-.2-.3-.2-7.1,0-14.2,0-21.3,0s-10.4,0-15.7,0c-.2,0-.4,0-.5.2-.1.2,0,.4,0,.4,0,2,0,4,0,6,0,.1,0,.3.2.5.2.2.4.2.5.2.5,0,6.9,0,15.8,0,2,0,20.4.1,20.9,0,.2,0,.4-.2.4-.2s.1-.1.2-.3c.2-.3.2-2.8,0-6.3Z"/>
  <path class="st17" d="M176.7,78.7c0,0,0-.3-.3-.4-.1-.1-.2-.2-.3-.2-7.1,0-14.2,0-21.3,0s-10.4,0-15.7,0c-.2,0-.4,0-.5.2-.1.2,0,.4,0,.4,0,2,0,4,0,6,0,.1,0,.3.2.5.2.2.4.2.5.2.5,0,6.9,0,15.8,0,2,0,20.4.1,20.9,0,.2,0,.4-.2.4-.2s.1-.1.2-.3c.2-.3.2-2.8,0-6.3Z"/>
  <path class="st17" d="M107.7,96.6c0,0-.1-.3-.4-.4-.2-.1-.4-.2-.5-.2-10.9,0-21.7,0-32.6,0s-15.9,0-23.9,0c-.3,0-.6,0-.7.2-.2.2-.1.4-.1.4,0,2,0,4,0,6,0,.1,0,.3.3.5.3.2.7.2.8.2.7,0,10.6,0,24,0,3,0,31.2.1,31.9,0,.4,0,.6-.2.6-.2s.2-.1.3-.3c.2-.3.3-2.8.1-6.3Z"/>
  <path class="st17" d="M176.3,96.6c0,0-.1-.3-.4-.4-.2-.1-.4-.2-.5-.2-10.9,0-21.7,0-32.6,0s-15.9,0-23.9,0c-.3,0-.6,0-.7.2-.2.2-.1.4-.1.4,0,2,0,4,0,6,0,.1,0,.3.3.5.3.2.7.2.8.2.7,0,10.6,0,24,0,3,0,31.2.1,31.9,0,.4,0,.6-.2.6-.2s.2-.1.3-.3c.2-.3.3-2.8.1-6.3Z"/>
  <path class="st17" d="M87.7,113.4c0,0,0-.3-.3-.4-.1-.1-.2-.2-.3-.2-7.1,0-14.2,0-21.3,0s-10.4,0-15.7,0c-.2,0-.4,0-.5.2-.1.2,0,.4,0,.4,0,2,0,4,0,6,0,.1,0,.3.2.5.2.2.4.2.5.2.5,0,6.9,0,15.8,0,2,0,20.4.1,20.9,0,.2,0,.4-.2.4-.2s.1-.1.2-.3c.2-.3.2-2.8,0-6.3Z"/>
  <path class="st17" d="M131.5,113.4c0,0,0-.3-.3-.4-.1-.1-.2-.2-.3-.2-7.1,0-14.2,0-21.3,0s-10.4,0-15.7,0c-.2,0-.4,0-.5.2-.1.2,0,.4,0,.4,0,2,0,4,0,6,0,.1,0,.3.2.5.2.2.4.2.5.2.5,0,6.9,0,15.8,0,2,0,20.4.1,20.9,0,.2,0,.4-.2.4-.2s.1-.1.2-.3c.2-.3.2-2.8,0-6.3Z"/>
  <path class="st17" d="M176.3,113.4c0,0,0-.3-.3-.4-.1-.1-.2-.2-.3-.2-7.1,0-14.2,0-21.3,0s-10.4,0-15.7,0c-.2,0-.4,0-.5.2-.1.2,0,.4,0,.4,0,2,0,4,0,6,0,.1,0,.3.2.5.2.2.4.2.5.2.5,0,6.9,0,15.8,0,2,0,20.4.1,20.9,0,.2,0,.4-.2.4-.2s.1-.1.2-.3c.2-.3.2-2.8,0-6.3Z"/>
  <path class="st17" d="M87.7,129.6c0,0,0-.3-.3-.4-.1-.1-.2-.2-.3-.2-7.1,0-14.2,0-21.3,0s-10.4,0-15.7,0c-.2,0-.4,0-.5.2-.1.2,0,.4,0,.4,0,2,0,4,0,6,0,.1,0,.3.2.5.2.2.4.2.5.2.5,0,6.9,0,15.8,0,2,0,20.4.1,20.9,0,.2,0,.4-.2.4-.2s.1-.1.2-.3c.2-.3.2-2.8,0-6.3Z"/>
  <path class="st17" d="M131.5,129.6c0,0,0-.3-.3-.4-.1-.1-.2-.2-.3-.2-7.1,0-14.2,0-21.3,0s-10.4,0-15.7,0c-.2,0-.4,0-.5.2-.1.2,0,.4,0,.4,0,2,0,4,0,6,0,.1,0,.3.2.5.2.2.4.2.5.2.5,0,6.9,0,15.8,0,2,0,20.4.1,20.9,0,.2,0,.4-.2.4-.2s.1-.1.2-.3c.2-.3.2-2.8,0-6.3Z"/>
  <path class="st17" d="M176.3,129.6c0,0,0-.3-.3-.4-.1-.1-.2-.2-.3-.2-7.1,0-14.2,0-21.3,0s-10.4,0-15.7,0c-.2,0-.4,0-.5.2-.1.2,0,.4,0,.4,0,2,0,4,0,6,0,.1,0,.3.2.5.2.2.4.2.5.2.5,0,6.9,0,15.8,0,2,0,20.4.1,20.9,0,.2,0,.4-.2.4-.2s.1-.1.2-.3c.2-.3.2-2.8,0-6.3Z"/>
  <path class="st17" d="M106.9,158.2c0,0-.1-.3-.4-.4-.2-.1-.4-.2-.5-.2-10.9,0-21.7,0-32.6,0s-15.9,0-23.9,0c-.3,0-.6,0-.7.2-.2.2-.1.4-.1.4,0,2,0,4,0,6,0,.1,0,.3.3.5.3.2.7.2.8.2.7,0,10.6,0,24,0,3,0,31.2.1,31.9,0,.4,0,.6-.2.6-.2s.2-.1.3-.3c.2-.3.3-2.8.1-6.3Z"/>
  <path class="st17" d="M175.9,158.2c0,0-.1-.3-.4-.4-.2-.1-.4-.2-.5-.2-10.9,0-21.7,0-32.6,0s-15.9,0-23.9,0c-.3,0-.6,0-.7.2-.2.2-.1.4-.1.4,0,2,0,4,0,6,0,.1,0,.3.3.5.3.2.7.2.8.2.7,0,10.6,0,24,0,3,0,31.2.1,31.9,0,.4,0,.6-.2.6-.2s.2-.1.3-.3c.2-.3.3-2.8.1-6.3Z"/>
  <path class="st17" d="M175.8,174.9c0,0-.2-.3-.8-.4-.4-.1-.8-.2-1-.2-23.7,0-47.4,0-71.1,0s-34.8,0-52.2,0c-.6,0-1.2,0-1.6.2-.5.2-.3.4-.3.4,0,2,.1,4,.2,6,0,.1.1.3.6.5.6.2,1.4.2,1.8.2,1.6,0,23.1,0,52.5,0,6.6,0,68.1.1,69.6,0,.8,0,1.3-.2,1.3-.2s.4-.1.7-.3c.5-.3.7-2.8.3-6.3Z"/>
  <path class="st17" d="M107.3,190.4c0,0-.1-.3-.4-.4-.2-.1-.4-.2-.5-.2-10.9,0-21.7,0-32.6,0s-15.9,0-23.9,0c-.3,0-.6,0-.7.2-.2.2-.1.4-.1.4,0,2,0,4,0,6,0,.1,0,.3.3.5.3.2.7.2.8.2.7,0,10.6,0,24,0,3,0,31.2.1,31.9,0,.4,0,.6-.2.6-.2s.2-.1.3-.3c.2-.3.3-2.8.1-6.3Z"/>
  <path class="st17" d="M176.6,190.4c0,0-.1-.3-.4-.4-.2-.1-.4-.2-.5-.2-10.9,0-21.7,0-32.6,0s-15.9,0-23.9,0c-.3,0-.6,0-.7.2-.2.2-.1.4-.1.4,0,2,0,4,0,6,0,.1,0,.3.3.5.3.2.7.2.8.2.7,0,10.6,0,24,0,3,0,31.2.1,31.9,0,.4,0,.6-.2.6-.2s.2-.1.3-.3c.2-.3.3-2.8.1-6.3Z"/>
  <path class="st3" d="M186.9,40.8h-28.6c0-4.9-.2-9.8-.3-14.7-.1-5.5-.3-10.9-.4-16.4,6,6.4,12,12.7,18,19.1,3.8,4,7.6,8,11.4,11.9Z"/>
  <path class="st17" d="M49.6,23.5c-1,1-1.7,2.9-1.9,4.3-.5,4.6-.5,15,0,19.7s2.7,6.2,6.2,6.6c4.7.5,15.3.4,20.1,0,3.4-.3,6.2-2.2,6.6-5.8s.5-16.1,0-20.9-2.4-5.4-5.3-5.8c-4.8-.6-16.4-.4-21.4,0s-3.2.7-4.3,1.9Z"/>
  <g>
    <path class="st9" d="M56,53.4c-.1,0,0-.4,0-.5,0-.9,0-1.9,0-2.8,0-.6.3-1,.4-1.5.5-1.9.4-4.2.1-6.1,0-.2,0-.5-.1-.7l.9-.2c.6,2.4,2.4,4.4,4.8,4.9,2.4.5,5,0,6.6-2,.7-.9,1.1-1.8,1.4-2.9,0,0,.7.2.8.2,0,0,0,0,0,0,0,.5-.2,1.1-.2,1.6-.1,1.5-.2,3.9.4,5.3.2.4.4.6.4,1.1,0,.4,0,.8,0,1.1,0,.8,0,1.6,0,2.4h-15.7Z"/>
    <path class="st15" d="M60.9,50.2c0-.2,0-.3,0-.4,0-.9.6-1.6.7-1.6.6-.6,1.2-.8,1.5-.9,0,0,.1,0,.2,0,0,0,.9-.1,1.7.4,1.1.6,1.5,1.9,1.2,3.2-.5,1.9-2.8,2.7-4.3,1.4-.2-.1-.3-.3-.3-.3-.3-.3-.4-.6-.5-.8M40,53.6h0M70.4,32c0,.5,0,.8,0,1.1,0,.2-.2,1.4-.9,1.7-.3.1-.4,0-.6.2-.2.1-.2.3-.5,1-.2.7-.3.9-.5,1.2-.2.3-.3.5-.4.6,0,.5,0,1.1,0,1.6l.5.6c.2.2.5.3.6.4.7.4,1.4.6,1.7.7.2,0,.2,0,.4.1.4.1.7.2.9.3.9.3,1.3.5,1.6.7.3.1.7.4,1.2.8.1.1.8.7,1.3,1.9.3.7.5,1.5.6,3.2,0,1.1.2,2.5.1,4.2v1.2c0,0,0,.3-.3.4-.2.2-.5.1-.6.1-.6,0-1.2,0-1.9,0-6.4,0-12.8,0-19.2,0h-3.1c-.1,0-.3,0-.4-.1-.2-.2-.2-.5-.2-1,0-.6,0-.9,0-1,.3-2.4-.3-5.7,1.1-7.9,1.7-2.7,4.6-2.8,7.3-3.9.2,0,.3-.3.5-.3l.2-2.2c-.2-.1-.2-.4-.3-.5,0,0,0,0,0,0-.3-.5-.5-1.1-.7-1.7-.2,0-.4,0-.6,0-1-.3-1.3-1.5-1.4-2.5,0-.9.1-1.6,1-1.9,0-.3-.1-.6-.2-.9-.3-2.1.2-3.8,1.9-5.1,2.7-2,6-1.3,6.2-1.2.7.2,1.4.4,2.2,1.1,1.3,1.2,1.5,2.8,1.6,3.5.1,1.1,0,2-.1,2.5.1,0,.3.2.5.4.3.4.4.8.4.9h0ZM69,29.9c.2-1.7,0-3.8-1.4-4.9-.9-.7-2.9-.8-4-.8-2.5,0-5,1.3-5.2,4.2,0,.8.1,1.5.3,2.2,0,0,0,0,0-.1.3-1.1.2-2.4,1.2-3.1.6-.5.9-.1,1.5,0,1.6.6,2.9.7,4.6.2.8-.3,1.7-.8,2.4,0,.5.5.5,1.3.6,2v.3c.1,0,.1,0,.1,0ZM62.5,48c0,0-.1,0-.1,0,0,0,0,0-.1.1h.3s.2,0,.2,0c.2,0,.4.2.6.3.3.3.8.7.9,1.1,0,.1,0,.3.1.4,0,0,0,0,0,0,0,0,.4-.2.4-.2,0,0,0,0,0,0,0-.2-.1-.3-.2-.5,0-.3-.1-.6-.2-.8,0-.2,0-.5,0-.7-.2,0-.6-.2-1-.2,0,0-.4,0-.9.3h0ZM65.5,48.7c0-.1-.2-.2-.3-.4l-.3-.2c0,0,0,.2,0,.3,0,.4.2.9.3,1.3.2-.1.4-.3.5-.5,0,0,0-.1,0-.2,0,0,0-.2-.2-.3h0ZM61.8,48.7c-.1.1-.3.6-.3.8,0,.2,0,.5,0,.7,0,0,0,0,0,0,0,0,.6.1.7.1.5,0,1,0,1.4,0,.1,0,.2,0,.3,0,0,0-.2-.5-.2-.5-.2-.3-.4-.5-.6-.7-.4-.3-.9-.4-1.3-.3,0,0,0,0,0,0h0ZM63.3,28.8c-.8-.2-1.5-.3-2.3-.7-.1,0-.5-.3-.6-.3-.2,0-.5.6-.6.8-.2.6-.3,1.4-.4,2,0,.5,0,1.7-.8,1.3-.2,0-.3-.5-.6-.5-.3,0-.4.3-.4.5,0,.4.1,1.6.4,1.9.5.7,1.3,0,1.5.6.1.4.2.8.4,1.2.6,1.5,2.3,3.1,3.9,3.2.8,0,1.9-.5,2.4-1,0,0,0,0,0,0,0,0,.1,0,.1-.1,0,0,0,0,.2-.2,0,0,.1-.1.1-.1.9-.8,1.2-2.1,1.2-2.1,0-.2.2-.9.3-1,.1-.2.6,0,.8-.1,0,0,0,0,0,0,0,0,0,0,.1,0,0,0,.3-.3.4-.4.2-.4.3-1.5.2-1.9,0-.1-.2-.4-.3-.4-.2,0-.2.4-.5.5-.3,0-.5-.1-.6-.5-.2-.9-.2-1.8-.4-2.7,0-.4-.3-.9-.7-.8-.7.1-1.5.7-2.2.8h-.7c-.3.1-.7.1-1,.1h0ZM65.8,51c.2-.4.3-.9.2-1.3l-.3.3-.3.2c0,.1,0,.2.1.3,0,.2.2.3.3.5h0ZM64.5,50.6c0,0,0,.3,0,.4,0,.4-.1.7-.4,1,0,.1-.2.2-.3.3,0,0,0,.1,0,.1.5,0,1.1-.3,1.5-.7,0,0,.2-.2.2-.3,0,0,0-.1,0-.1,0,0-.1-.2-.2-.3-.1-.2-.2-.5-.3-.7l-.6.2h0ZM62.9,50.8c-.2,0-.4,0-.7,0h-.7c.2.7.8,1.2,1.6,1.5.1,0,.6-.3.8-.9.1-.3.1-.5.1-.7,0,0-.4,0-.5,0-.1,0-.4,0-.7,0h0ZM64.3,44.2h0c0,0,.2,0,.2,0,.1,0,.6-.1,1.1-.3,0,0,.6-.2,1.2-.6,1-.8,1.3-2.1,1.4-2.5-.4-.3-.8-.5-1-1,0-.1-.1-.4-.1-.5v-.8c-1.2,1.1-2.7,1.7-4.3,1.2-.8-.3-1.4-.8-2.1-1.3v1c0,.4-.3.9-.6,1.1,0,0-.5.3-.5.3,0,.1.3.8.4,1,1.2,2.3,3.4,2.4,3.5,2.4h.8s.1,0,.2,0h0ZM68.9,41.2c-.3,1.3-1.2,2.6-2.4,3.3-1.2.7-2.7.8-4,.5-1.9-.4-3.3-1.9-3.9-3.8,0,0-.5.1-.5.2.6,2.1,2.3,4,4.5,4.4,3,.5,5.4-.9,6.5-3.8.2-.5.3-.7-.3-.8h0ZM56,53.4h15.7c0-.8,0-1.6,0-2.4,0-.4,0-.8,0-1.1,0-.5-.2-.7-.4-1.1-.5-1.4-.5-3.8-.4-5.3,0-.5.2-1.1.2-1.6,0,0,0,0,0,0,0,0-.7-.2-.8-.2-.3,1-.7,2-1.4,2.9-1.6,2-4.2,2.6-6.6,2-2.4-.5-4.2-2.5-4.8-4.9l-.9.2c0,.2,0,.5.1.7.2,1.9.4,4.2-.1,6.1-.1.5-.4.9-.4,1.5,0,.9,0,1.9,0,2.8,0,.1-.1.5,0,.5h0ZM72.6,53.3s0,0,0,0c0,0,0,0,0,0,0,0,0,0,0,0,.2,0,.3,0,.5,0,.7,0,1.6.1,2.3,0,.7,0,.5-.4.5-1,0-.6,0-.7,0-1.4,0,0,0-.2,0-.2,0-.1,0-.3,0-.6,0-.2,0-.4,0-.9,0,0,0-.5,0-.7h0c0-.3,0-.6,0-.9,0-1.5-.4-3.3-1.5-4.4-.5-.5-1.7-1.2-2.4-1.4,0,0,0,0,0,0,0,0-.2.9-.2,1-.2,1.4-.2,3.5.2,4.9.2.7.5,1,.6,1.8,0,1,0,2.1,0,3.1,0,0,0,.3,0,.4h0ZM51.7,50.1c0,0,0,.2,0,.4,0,.3,0,.5,0,.7,0,.3,0,.6,0,.9,0,.2,0,1.1,0,1.2,0,0,.2,0,.2,0h3.1c0,0,0-.2,0-.3,0-1.1,0-2.4.1-3.5,0-.6.4-1.3.5-1.9,0-.5.1-1.1.2-1.6,0-.8,0-1.7,0-2.6,0-.5,0-1-.2-1.4,0,0,0,0,0,0-.1,0-.8.3-.9.4-3.1,1.5-2.9,4.6-2.9,7.6h0Z"/>
    <path class="st10" d="M72.6,53.3c0,0,0-.3,0-.4,0-1,0-2.1,0-3.1,0-.7-.4-1.1-.6-1.8-.4-1.4-.4-3.5-.2-4.9,0-.2.2-1,.2-1,0,0,0,0,0,0,.7.2,1.9.9,2.4,1.4,1.1,1.1,1.4,2.9,1.5,4.4,0,0,0,.1,0,.2,0,.2,0,.4,0,.6h0c0,.2,0,.3,0,.4,0,0,0,0,0,.4,0,0,0,.3,0,.5,0,.3,0,.4,0,.5,0,.3,0,.4,0,.6,0,.7,0,.8,0,1.4,0,.5.2.9-.5,1-.7,0-1.5,0-2.3,0-.2,0-.3,0-.5,0h0s0,0,0,0c0,0,0,0,0,0h0s0,0,0,0c0,0,0,0,0,0h0Z"/>
    <path class="st10" d="M51.7,50.1c0-.1,0-.2,0-.3,0-.2,0-.6,0-1.4,0-.1,0-.3,0-.5,0-.4,0-1,.2-1.7,0-.4.1-.8.3-1.2.3-.7.6-1.1.8-1.3.2-.2.5-.6,1-.9,0,0,.2-.1.2-.1.1,0,.3-.1.3-.2,0,0,0,0,0,0,0,0,.5-.3.9-.4,0,0,0,0,0,0,0,0,0,0,0,0,.1.4.1,1,.2,1.4,0,.2,0,.4,0,.5,0,.7,0,1.4,0,2,0,.4,0,.9-.2,1.6-.1.6-.5,1.3-.5,1.9-.1,1.1,0,2.4-.1,3.5,0,0,0,.2,0,.3h-3.1s-.2,0-.2,0c-.1-.1,0-1,0-1.2,0-.5,0-.7,0-.9,0-.3,0-.4,0-.7,0-.1,0-.2,0-.5h0Z"/>
    <path class="st6" d="M68.9,41.2c.6,0,.5.3.3.8-1.1,2.9-3.5,4.3-6.5,3.8-2.2-.4-3.9-2.2-4.5-4.4,0,0,.4-.2.5-.2.6,1.9,2,3.3,3.9,3.8,1.3.3,2.8.1,4-.5,1.2-.7,2-1.9,2.4-3.3h0Z"/>
    <path class="st18" d="M69,29.9v-.3c-.2-.7-.2-1.4-.7-2-.7-.8-1.6-.3-2.4,0-1.7.5-3,.4-4.6-.2-.5-.2-.9-.5-1.5,0-.9.7-.9,2.1-1.2,3.1,0,0,0,.1,0,.1-.1-.8-.3-1.5-.3-2.2.2-2.8,2.7-4.1,5.2-4.2,1.1,0,3.1.1,4,.8,1.4,1.1,1.7,3.2,1.4,4.9h0Z"/>
    <path class="st10" d="M62.8,44.1c-.1,0-.3,0-.6-.2-.1,0-.4-.2-.8-.4-.3-.2-.5-.4-.6-.4-.3-.3-.5-.6-.6-.7-.1-.2-.2-.3-.4-.7-.4-.8-.4-.9-.4-1,0,0,.4-.3.5-.3.3-.2.6-.7.6-1.1v-1c.6.5,1.3,1,2.1,1.3,1.6.6,3.1-.1,4.3-1.2v.8c0,0,0,.4.1.5.2.5.6.7,1,1,0,.3-.2.8-.5,1.3-.1.3-.4.7-.9,1.1-.4.3-.8.5-1.1.6-.6.2-1.1.3-1.4.3-.3,0-.6,0-.6,0-.3,0-.6,0-.8,0h0Z"/>
    <path class="st10" d="M63.1,28.8c.2,0,.2,0,.7,0,.3,0,.4,0,.5,0,.1,0,.2,0,.4,0,.3,0,.3,0,.5,0,.3,0,.5-.1.8-.3.4-.1.7-.3.7-.3,0,0,.2,0,.4-.1,0,0,.2,0,.3,0,0,0,.1,0,.1,0,0,0,0,0,.1,0,0,0,0,0,0,0,0,0,.1.2.2.3,0,.2.1.3.1.4.1.5.2.8.2.8,0,.6.1,1.2.2,1.9,0,.1,0,.3.2.4,0,0,.2,0,.3,0,.3,0,.3-.5.5-.5.2,0,.3.3.3.4,0,.4,0,1.6-.2,1.9,0,0-.3.4-.4.4,0,0-.1,0-.1,0,0,0,0,0,0,0-.2,0-.7,0-.8.1-.1.2-.1.4-.3,1,0,0,0,.3-.3.8-.1.3-.4.8-.9,1.3-.2.2-.2.2-.3.3,0,0,0,0,0,0,0,0,0,0,0,0-.2.2-.5.4-.8.6-.3.2-.5.3-.6.3-.3.1-.5.2-.9.2,0,0-.2,0-.3,0-.1,0-.5,0-1-.2,0,0-.4-.2-.8-.5-.3-.2-.9-.7-1.5-1.5-.1-.2-.4-.6-.6-1.1,0,0-.1-.3-.2-.6,0-.2,0-.3-.1-.4,0,0,0-.2,0-.3,0,0,0-.1-.1-.2-.3-.2-.9.2-1.4-.4-.3-.3-.4-1.5-.4-1.9,0-.2.2-.5.4-.5.3,0,.4.4.6.5.8.3.7-.9.8-1.3,0,0,.2-1.3.4-2,0-.2.2-.4.2-.4,0-.1.1-.2.1-.2,0,0,0,0,0,0,0,0,0,0,.1,0,0,0,0,0,0,0,0,0,0,0,0,0,0,0,0,0,.1,0,.2,0,.2.1.3.2,0,0,.2,0,.3.1,0,0,.2,0,.6.2.2,0,.4.1.6.2.1,0,.2,0,.3,0,0,0,.2,0,.3,0h0Z"/>
    <path class="st1" d="M64.5,51.2c0-.2,0-.4,0-.4,0,0,0,0,0,0,0,0,0,0,0,0,0,0,0,0,0,0,0,0,0,0,0,0,.2,0,.3-.1.5-.2,0,0,0,.2,0,.3,0,.1.1.3.2.4,0,0,0,.1.1.2,0,0,0,0,0,.1,0,0,0,0,0,0,0,0,0,0,0,0,0,0-.1.1-.1.2,0,0-.1.1-.2.2,0,0,0,0-.1.1,0,0,0,0-.2.1,0,0-.1,0-.1,0-.1,0-.2,0-.2.1-.1,0-.2,0-.3,0,0,0,0,0-.2,0,0,0-.1,0-.2,0,0,0,0,0,0,0,0,0,0,0,0,0,0,0,0,0,0,0,0,0,0,0,0,0,0,0,0,0,0,0,0,0,0,0,0,0,0,0,0,0,0,0,0,0,.2-.2.2-.2,0,0,0-.1.1-.2,0,0,0,0,0,0,0,0,0,0,0,0,0,0,0-.1,0-.3,0,0,0,0,0-.2h0Z"/>
    <path class="st1" d="M62,48.6s0,0,.1,0c0,0,.1,0,.2,0,0,0,0,0,.2,0,0,0,.1,0,.2,0,0,0,.1,0,.2,0,0,0,0,0,.1,0,0,0,0,0,0,0,0,0,0,0,.2.1,0,0,0,0,.2.1,0,0,0,0,0,0,0,0,0,0,0,0,0,0,0,0,0,0,0,0,.2.2.2.2,0,0,0,0,0,0,0,0,0,0,0,0,0,0,0,0,0,.1,0,.1.1.2.1.3,0,0,0,0,0,.1,0,0,0,0,0,0,0,0,0,0,0,0-.1,0-.2,0-.3,0-.2,0-.3,0-.4,0-.1,0-.2,0-.2,0,0,0-.1,0-.2,0,0,0-.2,0-.2,0-.1,0-.2,0-.2,0,0,0-.2,0-.2,0,0,0,0,0-.1,0,0,0,0,0,0,0,0,0-.1,0-.1,0,0,0-.1,0-.2,0,0,0,0,0-.1,0,0,0,0,0,0,0,0,0,0,0,0,0,0,0,0,0,0,0,0,0,0,0,0,0,0,0,0,0,0,0,0,0,0,0,0,0,0,0,0,0,0-.1,0,0,0,0,0-.1,0,0,0,0,0-.1,0,0,0,0,0,0s0,0,0,0c0,0,0,0,0,0,0,0,0,0,0,0,0,0,0,0,0-.1,0,0,0,0,0,0,0,0,0,0,0,0,0,0,0,0,0,0,0,0,0,0,0,0,0-.1.1-.3.1-.3,0,0,0,0,0,0,0,0,0-.1,0-.2,0,0,0,0,0-.1,0,0,0,0,0,0h0Z"/>
    <path class="st1" d="M61.7,51.1c0-.1,0-.2,0-.3,0,0,0,0,0,0,.1,0,.2,0,.3,0,.1,0,.2,0,.3,0,.1,0,.2,0,.3,0,.3,0,.5,0,.8,0,0,0,.2,0,.2,0,0,0,0,0,.1,0,0,0,.1,0,.1,0,0,0,0,0,0,0,0,0,0,0,.1,0,0,0,0,0,0,0,0,0,0,0,0,0s0,0,0,0c0,0,0,0,0,0,0,0,0,0,0,.1,0,0,0,0,0,.1,0,0,0,.1,0,.2,0,0,0,.1,0,.2,0,0,0,.1,0,.2,0,0,0,0,0,.1,0,0,0,.1-.1.2,0,0,0,0,0,.1,0,0,0,0-.1.1,0,0-.1,0-.2.1,0,0,0,0,0,0,0,0,0,0,0,0,0,0,0,0-.2,0,0,0,0,0-.2,0,0,0-.2,0-.2-.1,0,0-.1,0-.2-.1,0,0,0,0-.1,0,0,0,0,0-.1-.1,0,0-.1-.1-.1-.1,0,0-.1-.1-.1-.2,0-.1-.2-.3-.2-.3h0Z"/>
    <path class="st1" d="M63.8,47.7c0,0,.2,0,.2,0,0,0,.1,0,.2,0,.1,0,.2,0,.3,0v.5s0,0,0,.1c0,0,0,.2,0,.3,0,0,0,0,0,0,0,.3.1.5.1.5,0,.2.1.4.2.6,0,0,0,0,0,0,0,0,0,0,0,0,0,0,0,0,0,0,0,0,0,0,0,0,0,0,0,0,0,0,0,0,0,0,0,0,0,0,0,0,0,0,0,0,0,0-.1,0,0,0,0,0-.1,0,0,0,0,0,0,0,0,0,0,0,0,0,0,0,0,0,0,0,0,0,0,0,0,0,0,0,0,0,0,0,0,0,0,0,0,0,0,0,0,0,0,0,0,0,0,0,0,0,0,0,0,0,0,0h0s0,0,0,0c0,0,0,0,0,0,0,0,0,0,0,0-.1-.4-.2-.5-.2-.5,0-.2-.2-.3-.2-.4,0,0,0-.1-.2-.2,0,0,0,0,0,0,0,0,0,0,0,0,0,0,0,0-.1-.1,0,0-.1,0-.1-.1,0,0,0,0-.3-.1,0,0,0,0-.2,0,0,0,0,0,0,0,0,0,0,0,0,0,0,0,0,0,0,0,0,0,0,0,0,0h0s0,0,0,0c0,0,0,0,0,0h-.1s0,0,0,0,0,0,0,0c0,0,0,0,0,0,0,0,0,0,0,0,0,0,0,0,0,0,0,0,0,0,0,0,0,0,0,0,0,0,0,0,0,0,0,0,0,0,0,0,0,0,0,0,0,0,0,0,0,0,0,0,.1,0,0,0,0,0,0,0,0,0,.1,0,.2,0,.1,0,.2,0,.2,0,.2,0,.3,0,.4,0h0Z"/>
    <path class="st1" d="M65.7,49.9s0,0,0,0c0,0,0,0,0,0,0,0,0,0,.1-.1,0,0,0,0,0,0,0,0,0,0,0,.1,0,0,0,0,0,.1,0,0,0,0,0,.1,0,0,0,.1,0,.2,0,0,0,.1,0,.2,0,.1,0,.2,0,.2,0,0,0,0,0,.2,0,0,0,0,0,.1,0,0,0,0,0,0,0,0,0,0,0-.1,0-.2-.2-.3-.2-.3,0,0,0-.1,0-.2,0,0,0,0,0-.1,0,0,0,0,0,0h.1c0-.1,0-.2,0-.2,0,0,0,0,0,0h0Z"/>
    <path class="st1" d="M65.5,48.6c0,.1.1.2.2.3,0,0,0,.1,0,.2,0,0,0,0,0,0,0,.1-.1.2-.2.3,0,0,0,0-.1.1,0,0-.1.1-.2.1,0-.2,0-.4-.1-.4,0,0,0,0,0-.2,0,0,0-.1,0-.1,0,0,0-.1,0-.2,0,0,0-.1,0-.2,0,0,0,0,0,0,0,0,0,0,0,0,0,0,0,0,0,0,0-.1,0-.1,0-.2,0,0,0,0,0,0,0,0,0,0,0,0,0,0,0,0,0,0,0,0,0,0,.1,0,0,0,0,0,0,0,0,0,0,0,0,0,0,0,0,0,.1.2h0Z"/>
    <path class="st11" d="M60.3,32.5c0,0,.2-.2.2-.3.3-.3.7-.5,1.2-.5.4,0,.8.1,1.2.5.1,0,.2.2.3.3h0c0,0,0,.1,0,.1-.1.1-.2.3-.4.4-.3.2-.7.4-1.1.4-.4,0-.8-.1-1.1-.3-.2-.1-.3-.2-.4-.4h0c0,0,0-.1,0-.1h0Z"/>
    <path class="st8" d="M60.4,32.5c.8-.9,1.9-1,2.8,0-.7.9-2,.9-2.8,0h0Z"/>
    <path class="st14" d="M61.8,32c0,0,.1,0,.2,0,0,0,.1,0,.2.1,0,0,0,.1.1.2s0,.1,0,.2,0,.1,0,.2h0c0,0,0,.1-.1.2,0,0-.1,0-.2.1h0c0,0-.1,0-.2,0s-.1,0-.2,0c0,0-.1,0-.2-.1,0,0,0-.1-.1-.2,0,0,0-.1,0-.2s0-.1,0-.2c0,0,0-.1.1-.2,0,0,.1,0,.2-.1s.1,0,.2,0h0Z"/>
    <path class="st5" d="M61.8,32c.1,0,.3,0,.4.1,0,0,.2.2.2.4s0,.3-.2.4c0,0-.2.1-.4.1s-.3,0-.4-.1c0,0-.2-.2-.2-.4s0-.3.2-.4c0,0,.2-.1.4-.1h0Z"/>
    <path class="st12" d="M62.2,32.5s0,0,0,0c0,0,0,0,0,0h0s0,0,0,0c0,0,0,0,0,0h0ZM61.5,32.3s0,0,0,0,0,0,0,0h0c0,0,0,0,0,0,0,0,0,0,0,0h0s0,0,0,0ZM62.1,32.2s0,0,0,0,0,0,0,0h0c0,0,0,0,0,0,0,0,0,0,0,0h0ZM61.8,32.1s0,0,0,0c0,0,0,0,0,0h0c0,0,0,0,0,0,0,0,0,0,0,0h0c0,0,0,0,0,0ZM61.4,32.6s0,0,0,0c0,0,0,0,0,0h0s0,0,0,0c0,0,0,0,0,0h0ZM61.5,32.9s0,0,0,0c0,0,0,0,0,0h0c0,0,0,0,0,0,0,0,0,0,.1,0s0,0,0,0h0s-.1,0-.1,0h0ZM61.8,33s0,0,0,0c0,0,0,0,0,0h0c0,0,0,0,0,0,0,0,0,0,0,0h0ZM62.1,32.8s0,0,0,0,0,0,0,0c0,0,0,0,0,0h0c0,0,0,0,0,0,0,0,0,0,0,0h0s-.1,0-.1,0Z"/>
    <path class="st13" d="M61.8,32.3c0,0,.1,0,.2,0s0,.1,0,.2,0,.1,0,.2-.1,0-.2,0-.1,0-.2,0c0,0,0-.1,0-.2s0-.1,0-.2c0,0,.1,0,.2,0h0Z"/>
    <path class="st7" d="M61.9,32.3c0,0,0,0,0,0s0,0,0,0,0,0,0,0,0,0,0,0Z"/>
    <path class="st11" d="M64.6,32.5c0,0,.2-.2.2-.3.3-.3.7-.5,1.2-.5.4,0,.8.1,1.2.5.1,0,.2.2.3.3h0c0,0,0,.1,0,.1-.1.1-.2.3-.4.4-.3.2-.7.4-1.1.4-.4,0-.8-.1-1.1-.3-.2-.1-.3-.2-.4-.4h0c0,0,0-.1,0-.1h0Z"/>
    <path class="st8" d="M64.7,32.5c.8-.9,1.9-1,2.8,0-.7.9-2,.9-2.8,0Z"/>
    <path class="st14" d="M66.1,32c0,0,.1,0,.2,0,0,0,.1,0,.2.1,0,0,0,.1.1.2s0,.1,0,.2,0,.1,0,.2h0c0,0,0,.1-.1.2,0,0-.1,0-.2.1h0c0,0-.1,0-.2,0s-.1,0-.2,0c0,0-.1,0-.2-.1,0,0,0-.1-.1-.2,0,0,0-.1,0-.2s0-.1,0-.2c0,0,0-.1.1-.2,0,0,.1,0,.2-.1s.1,0,.2,0h0Z"/>
    <path class="st5" d="M66.1,32c.1,0,.3,0,.4.1,0,0,.2.2.2.4s0,.3-.2.4c0,0-.2.1-.4.1s-.3,0-.4-.1c0,0-.2-.2-.2-.4s0-.3.2-.4c0,0,.2-.1.4-.1h0Z"/>
    <path class="st12" d="M66.5,32.5s0,0,0,0c0,0,0,0,0,0h0s0,0,0,0c0,0,0,0,0,0h0ZM65.8,32.3s0,0,0,0,0,0,0,0h0c0,0,0,0,0,0,0,0,0,0,0,0h0s0,0,0,0ZM66.4,32.2s0,0,0,0,0,0,0,0h0c0,0,0,0,0,0,0,0,0,0,0,0h0ZM66.1,32.1s0,0,0,0c0,0,0,0,0,0h0c0,0,0,0,0,0,0,0,0,0,0,0h0c0,0,0,0,0,0ZM65.7,32.6s0,0,0,0c0,0,0,0,0,0h0s0,0,0,0c0,0,0,0,0,0h0ZM65.8,32.9s0,0,0,0c0,0,0,0,0,0h0c0,0,0,0,0,0,0,0,0,0,.1,0s0,0,0,0h0s-.1,0-.1,0h0ZM66.1,33s0,0,0,0c0,0,0,0,0,0h0c0,0,0,0,0,0,0,0,0,0,0,0h0ZM66.4,32.8s0,0,0,0,0,0,0,0c0,0,0,0,0,0h0c0,0,0,0,0,0,0,0,0,0,0,0h0s-.1,0-.1,0Z"/>
    <path class="st13" d="M66.1,32.3c0,0,.1,0,.2,0s0,.1,0,.2,0,.1,0,.2-.1,0-.2,0-.1,0-.2,0c0,0,0-.1,0-.2s0-.1,0-.2c0,0,.1,0,.2,0Z"/>
    <path class="st7" d="M66.2,32.3c0,0,0,0,0,0s0,0,0,0,0,0,0,0,0,0,0,0Z"/>
    <g>
      <path d="M64.9,31.4s0,0,0,0c0,0,0,0,0,0,0,0,0,0,0,0,0,0,0,0,0,0h0c0,0,0,.2,0,.2h0s0,0,0,0c0-.1,0-.2.2-.3,0,0,0,0,0,0,0,0,0,0,0,0,0,0,0,0,0,0,0,0,0,.1-.1.2,0,0,0,0,0,0,0,0,0,0,0,0,0,0,.1-.2.2-.2,0,0,0,0,0,0,.2,0,.4,0,.6,0,.2,0,.4,0,.5,0,.3,0,.5.1.7.3.2.1.3.3.4.5h0c0,0,0,0,0,0-.3-.3-.7-.5-1.1-.5-.2,0-.5.1-.7.2-.3,0-.6.1-1,.2,0,0-.1,0-.1,0,0,0,0,0,0,0,0,0,0-.1,0-.2,0,0,0-.2.1-.2,0,0,0,0,0,0,0,0,0,0,0,0,0,0,0,.2,0,.2,0,0,0,0,0,0,0,0,0,0,0,0,0,0,0-.2,0-.2h0s0,0,0,0c0,0,0,0,0,0h0s0,0,0,0c0,0,0,0,0,0h0s0,0,0,0c0,0,0,0,.1-.1,0,0,0,0,0,0,0,0,0,0,0,0,0,0,0,0,0,0,0,0,0,0-.1.2,0,0,0,0,0,0h0c0,0,0,0,0,0Z"/>
      <path d="M62.8,31.4s0,0,0,0c0,0,0,0,0,0,0,0,0,0,0,0,0,0,0,0,0,0h0c0,0,0,.2,0,.2h0s0,0,0,0c0-.1,0-.2-.2-.3,0,0,0,0,0,0,0,0,0,0,0,0,0,0,0,0,0,0,0,0,0,.1.1.2,0,0,0,0,0,0,0,0,0,0,0,0,0,0-.1-.2-.2-.2,0,0,0,0,0,0-.2,0-.4,0-.6,0-.2,0-.4,0-.5,0-.3,0-.5.1-.7.3-.2.1-.3.3-.4.5h0c0,0,0,0,0,0,.3-.3.7-.5,1.1-.5.2,0,.5.1.7.2.3,0,.6.1,1,.2,0,0,.1,0,.1,0,0,0,0,0,0,0,0,0,0-.1,0-.2,0,0,0-.2-.1-.2,0,0,0,0,0,0,0,0,0,0,0,0,0,0,0,.2,0,.2,0,0,0,0,0,0,0,0,0,0,0,0,0,0,0-.2,0-.2h0s0,0,0,0c0,0,0,0,0,0h0s0,0,0,0c0,0,0,0,0,0h0s0,0,0,0c0,0,0,0-.1-.1,0,0,0,0,0,0,0,0,0,0,0,0,0,0,0,0,0,0,0,0,0,0,.1.2,0,0,0,0,0,0h0c0,0,0,0,0,0Z"/>
    </g>
    <g>
      <path class="st16" d="M64.7,34.8c0,.2-.1.3-.3.3s0,0,0,0c0,0-.1,0-.2,0,0,0-.1,0-.2,0s-.2,0-.2,0c0,0-.1,0-.2,0,0,0,0,0,0,0-.2,0-.3-.1-.3-.3,0-.1.1-.3.3-.3h0s.2-.3.2-.6h0c0-.2.1-.3.3-.3h0c.1,0,.3.1.3.3h0c0,.4.2.6.2.6h0c.1,0,.3.1.3.3h0Z"/>
      <path class="st2" d="M63.7,35.2c0,0-.1,0-.2,0,0,0,0,0,0,0,0,0,0,0,0,0,0,0,0,0,.2,0,.1,0,.2,0,.2.2,0,0,0,0,0,0h0ZM64.3,35c-.1,0-.2,0-.2.2,0,0,0,0,0,0,0,0,.1,0,.2,0,0,0,0,0,0,0,0,0,0,0,0,0,0,0,0,0-.2,0h0Z"/>
    </g>
    <g>
      <path class="st4" d="M63.7,36.7c0,0,.2,0,.3,0,0,0,.2,0,.2,0,.4,0,.7,0,1.1,0,0,0,0,0,.1,0,0,0,0,0-.2,0-.2,0-.2-.1-.4-.2-.2-.1-.5-.3-.7-.2,0,0,0,0-.2,0,0,0,0,0,0,0,0,0-.1,0-.1,0,0,0,0,0,0,0-.1,0-.1,0-.2,0-.2,0-.6,0-.8.2-.1,0-.2.2-.3.2,0,0-.1,0-.1,0,0,0,0,0,.1,0,.4,0,.7-.2,1.1,0h0Z"/>
      <path class="st4" d="M65.4,36.8s0,0-.1,0c-.4,0-.7,0-1.1,0,0,0-.2,0-.2,0-.1,0-.2,0-.3,0-.4,0-.7,0-1.1,0,0,0,0,0-.1,0,0,0,0,0,0,0,0,0,.1,0,.3.1.3.1.3.2.6.3.2,0,.4,0,.6,0,.3,0,.5,0,.6,0,.3,0,.3-.2.6-.3.1,0,.3,0,.3-.1h0Z"/>
    </g>
  </g>
  <text class="st0" transform="translate(48.7 75)"><tspan x="0" y="0">First Name</tspan></text>
  <text class="st0" transform="translate(93.4 75)"><tspan x="0" y="0">Last Name</tspan></text>
  <text class="st0" transform="translate(138.3 75.1)"><tspan x="0" y="0">Middle Name</tspan></text>
  <text class="st0" transform="translate(48.8 93.3)"><tspan x="0" y="0">Mobile Number</tspan></text>
  <text class="st0" transform="translate(117.8 93.4)"><tspan x="0" y="0">Email Address</tspan></text>
  <text class="st0" transform="translate(48.8 110.6)"><tspan x="0" y="0">Age</tspan></text>
  <text class="st0" transform="translate(93.4 110.6)"><tspan x="0" y="0">Sex</tspan></text>
  <text class="st0" transform="translate(138.2 110.6)"><tspan x="0" y="0">Birthday</tspan></text>
  <text class="st0" transform="translate(48.7 126.6)"><tspan x="0" y="0">Birthplace</tspan></text>
  <text class="st0" transform="translate(48.7 154.3)"><tspan x="0" y="0">Sports</tspan></text>
  <text class="st0" transform="translate(138.2 126.6)"><tspan x="0" y="0">Height</tspan></text>
  <text class="st0" transform="translate(93.4 126.6)"><tspan x="0" y="0">Weight</tspan></text>
  <text class="st0" transform="translate(117.6 155.2)"><tspan x="0" y="0">Address</tspan></text>
  <g>
    <path d="M96.8,34.5c.7,0,1.2.1,1.5.3.4.3.7.7.7,1.3,0,1.2-1,1.7-1.9,1.7,0,0-.2,0-.3,0h-.5c0-.1,0,1,0,1,0,.7,0,.7.8.8v.3h-2.7v-.3c.6,0,.7-.1.7-.8v-3.2c0-.7,0-.8-.7-.8v-.3h2.4ZM96.3,37.4c.1,0,.3,0,.4,0,.4,0,1-.2,1-1.3s-.5-1.3-1.1-1.3-.3,0-.3,0c0,0,0,.1,0,.3v2.2Z"/>
    <path d="M102.6,39.1c-.5.8-1.2.9-1.5.9-1.1,0-1.8-.8-1.8-1.8s.3-1.2.6-1.5c.4-.4.8-.6,1.3-.6.8,0,1.4.7,1.4,1.4,0,.1,0,.3-.1.3-.2,0-1.3.1-2.2.1,0,.9.5,1.3,1.1,1.3s.7-.1,1-.4l.2.2ZM101.1,36.5c-.3,0-.6.4-.7,1.1.3,0,.7,0,1,0,.1,0,.2,0,.2-.2,0-.4-.2-.9-.5-.9Z"/>
    <path d="M105.4,40h-2.2v-.3c.4,0,.5,0,.5-.6v-1.8c0-.4,0-.5-.4-.5v-.3c.5,0,1-.2,1.5-.3v.9c.4-.6.7-.9,1-.9s.5.2.5.5-.3.6-.4.7c-.1,0-.2,0-.3,0-.1-.1-.3-.3-.4-.3s-.3.1-.5.4v1.6c0,.5,0,.5.6.6v.3Z"/>
    <path d="M108.9,37.3c-.2-.6-.5-.9-.9-.9s-.4.2-.4.4.2.5.6.6c.7.3,1.1.6,1.1,1.3s-.8,1.3-1.5,1.3-.9-.2-1.1-.3c0-.2-.1-.8-.1-1.1h.3c.2.5.5,1,1.1,1s.5-.2.5-.4-.1-.5-.6-.7c-.6-.3-1.1-.6-1.1-1.3s.5-1.2,1.4-1.2.7,0,.9.1c0,.2.1.8.1,1h-.3Z"/>
    <path d="M112,36.1c1.2,0,1.9.9,1.9,1.9s-1,2-2,2-2-1-2-1.9,1.1-2,2-2ZM111.9,36.5c-.4,0-.7.4-.7,1.4s.3,1.8.9,1.8.7-.2.7-1.4-.3-1.8-.8-1.8Z"/>
    <path d="M116.8,40v-.3c.4,0,.4,0,.4-.7v-1.4c0-.6-.3-.8-.6-.8s-.4,0-.6.3v2c0,.5,0,.5.4.6v.3h-2v-.3c.4,0,.5,0,.5-.6v-1.7c0-.5,0-.5-.4-.6v-.3c.5,0,1.1-.2,1.5-.3,0,.1,0,.4,0,.6.2-.1.3-.2.5-.4.3-.2.4-.2.7-.2.7,0,1.1.5,1.1,1.4v1.6c0,.5,0,.5.5.6v.3h-1.9Z"/>
    <path d="M121.9,40.1c-.2,0-.4,0-.5-.2-.1-.1-.2-.2-.2-.3-.3.2-.7.5-.9.5-.7,0-1.1-.6-1.1-1.1s.2-.6.6-.8c.5-.2,1.2-.4,1.4-.6v-.4c0-.4-.2-.7-.5-.7s-.3,0-.3.2c-.1.1-.1.3-.2.6,0,.2-.2.3-.4.3s-.5-.2-.5-.4.1-.3.3-.4c.4-.3.9-.5,1.3-.6.3,0,.6,0,.9.2.4.3.5.6.5,1v1.5c0,.4.1.5.3.5s.2,0,.3,0v.3c0,0-.8.5-.8.5ZM121.2,38c-.2,0-.3.2-.5.3-.3.1-.4.3-.4.6,0,.5.3.6.5.6s.2,0,.4-.1v-1.3Z"/>
    <path d="M123,40v-.3c.5,0,.5-.1.5-.6v-3.8c0-.4,0-.5-.5-.6v-.3c.6,0,1.2-.2,1.6-.3v5c0,.6,0,.6.5.6v.3h-2.1Z"/>
    <path d="M130,34.5c1.1,0,1.9.2,2.4.7.4.4.8,1,.8,1.8s-.4,1.7-1.1,2.2c-.6.5-1.4.7-2.4.7h-2.3v-.3c.6,0,.7-.1.7-.8v-3.2c0-.7,0-.8-.7-.8v-.3h2.6ZM129.3,38.8c0,.6.2.8.8.8,1.1,0,1.8-.8,1.8-2.4s-.2-1.5-.6-1.9c-.4-.4-.8-.5-1.4-.5s-.5,0-.5.1c0,0,0,.2,0,.5v3.3Z"/>
    <path d="M136.6,40.1c-.2,0-.4,0-.5-.2-.1-.1-.2-.2-.2-.3-.3.2-.7.5-.9.5-.7,0-1.1-.6-1.1-1.1s.2-.6.6-.8c.5-.2,1.2-.4,1.4-.6v-.4c0-.4-.2-.7-.5-.7s-.3,0-.3.2c-.1.1-.1.3-.2.6,0,.2-.2.3-.4.3s-.5-.2-.5-.4.1-.3.3-.4c.4-.3.9-.5,1.3-.6.3,0,.6,0,.9.2.4.3.5.6.5,1v1.5c0,.4.1.5.3.5s.2,0,.3,0v.3c0,0-.8.5-.8.5ZM135.9,38c-.2,0-.3.2-.5.3-.3.1-.4.3-.4.6,0,.5.3.6.5.6s.2,0,.4-.1v-1.3Z"/>
    <path d="M139.5,40c-.1,0-.3,0-.3,0-.6,0-1-.3-1-1.1v-2.3h-.6c0-.1.2-.4.2-.4h.3v-.7c.3-.2.7-.5,1-.7h.1c0,.3,0,.7,0,1.4h.8c0,0,0,.3,0,.4h-.8v2.1c0,.7.3.7.4.7s.3,0,.4,0v.3c0,0-.5.3-.5.3Z"/>
    <path d="M143.3,40.1c-.2,0-.4,0-.5-.2-.1-.1-.2-.2-.2-.3-.3.2-.7.5-.9.5-.7,0-1.1-.6-1.1-1.1s.2-.6.6-.8c.5-.2,1.2-.4,1.4-.6v-.4c0-.4-.2-.7-.5-.7s-.3,0-.3.2c-.1.1-.1.3-.2.6,0,.2-.2.3-.4.3s-.5-.2-.5-.4.1-.3.3-.4c.4-.3.9-.5,1.3-.6.3,0,.6,0,.9.2.4.3.5.6.5,1v1.5c0,.4.1.5.3.5s.2,0,.3,0v.3c0,0-.8.5-.8.5ZM142.5,38c-.2,0-.3.2-.5.3-.3.1-.4.3-.4.6,0,.5.3.6.5.6s.2,0,.4-.1v-1.3Z"/>
  </g>
  <text class="st0" transform="translate(48.7 171.7)"><tspan x="0" y="0">Achievements</tspan></text>
  <text class="st0" transform="translate(118.1 187.3)"><tspan x="0" y="0">Mobile Number</tspan></text>
  <text class="st0" transform="translate(48.7 187.3)"><tspan x="0" y="0">Guardian Name</tspan></text>
</svg>