<svg width="48" height="40" viewBox="0 0 48 40" fill="none" xmlns="http://www.w3.org/2000/svg">
<g id="Vector">
<path d="M10.9091 40V19.3992L5.15751 13.5542L0 10.3107V36.3646C0 38.3761 1.46728 40 3.27274 40H10.9091Z" fill="#4285F4"/>
<path d="M37.0908 40H44.7273C46.5382 40 48 38.3701 48 36.3646V10.3107L42.1583 14.026L37.0908 19.3992V40Z" fill="#34A853"/>
<path d="M10.9091 19.3992L10.1265 11.3499L10.9091 3.64583L24.0001 14.5521L37.091 3.64583L37.9666 10.9339L37.0908 19.3992L24.0001 30.3056L10.9091 19.3992Z" fill="#EA4335"/>
<path d="M37.091 3.64583L37.0908 19.3992L48 10.3107V5.46344C48 0.967639 43.38 -1.59533 40.1454 1.10094L37.091 3.64583Z" fill="#FBBC04"/>
<path d="M0 10.3107L10.9091 19.3992L10.9091 3.64583L7.85456 1.10094C4.61455 -1.59533 0 0.967639 0 5.46344V10.3107Z" fill="#C5221F"/>
</g>
</svg>
