<?xml version="1.0" encoding="UTF-8"?>
<svg id="Layer_1" xmlns="http://www.w3.org/2000/svg" version="1.1" viewBox="0 0 475.44 490.32">
  <!-- Generator: Adobe Illustrator 29.3.1, SVG Export Plug-In . SVG Version: 2.1.0 Build 151)  -->
  <path d="M240.38,0c1.67.39,3.38.58,5.04,1.08,5.69,1.71,9.52,5.93,14.28,9.18,15.1-15.47,41.42-8.8,46.65,12.3,8.8-2.68,19.04-3.4,27.26,1.4,8.42,4.91,12.04,15.01,12.89,24.3,24.36,4.52,29.08,39.43,7.32,50.76,2.3,4.85,2.23,10.33,2.18,15.59,0,.63-.26,1.21-.26,1.9-.02,3.75.53,7.9.25,11.53-.34,4.4-2.66,7.58-6.48,9.64.18,8.5-.09,16.93-.98,25.37-.17,1.58-1.53,7.66-.58,8.56.32.3,1.01.24,1.49.42,14.29,5.56,16.19,19.41,11.41,32.63-3.92,10.86-11.99,21.6-22.09,27.32,1.15,12.41.99,25.82-2.8,37.78-1.71,5.39-4.11,9.63-7.46,14.14-6.27,8.42-13.86,16.19-21.39,23.47-.49,10.56-3.26,21.39-3.88,31.87-.08,1.28-.17,6.47.36,7.32,1.22.67,2.81.99,4.19,1.33,5.82,1.41,12.89,1.36,17.19,5.8,6.67-.18,12.43,2.08,18.69,3.66,13.19,3.32,26.48,6.92,39.72,9.93,17.74,4.04,35.67,6.08,52.41,13.8,16.77,7.73,33.25,24.26,37.86,42.52,1.42,5.64,2.13,12.15,1.08,17.89-14.89,8.34-31.54,13.96-47.79,19.14-13.17,4.2-26.78,8.15-40.23,11.35-3.98.95-6.46,1.64-10.33,2.87-4.76,1.51-10.21,1.72-15.16,2.59-20.82,3.66-40.53,7.8-61.71,9.77-71.25,6.62-142.94,2.13-212.25-15.38-13.9-3.51-28.33-8.05-42-12.46-12.64-4.08-30.89-9.49-42.01-16.28-1.19-.73-2.79-1.28-2.96-2.8-2.75-23.72,15.38-46.16,35.02-56.89,17.32-9.46,36.74-11.11,55.57-15.68,5.55-1.35,11.03-3.16,16.58-4.53,8.7-2.14,17.54-3.78,26.24-5.9,3.15-.77,6.39-2.04,9.54-2.69s6.17-.44,8.94-.88c.88-.14,6.7-3.75,8.58-4.4,2.04-.7,9.8-1.45,10.76-2.91.77-1.17.77-5.65.75-7.18,0-.63-.26-1.21-.26-1.9-.06-8.95-.03-17.94.21-26.85-6.35-5.37-12.37-11.16-17.83-17.44-12.44-14.29-18.18-25.24-18.6-44.75v-4.58s.75-11.71.75-11.71c-7.42-4.4-13.69-10.79-18.05-18.24-4.59-7.85-8.56-19.41-5.78-28.42,1.78-5.78,8.09-12.52,14.16-13.68.56-.11,1.82.2,1.73-.42-.1-.78-.55-1.76-.68-2.68-1.14-7.91-.84-16.87-1.22-24.94-.09-1.88-.46-3.8-.23-5.72-3.34-1.61-6.6-4.75-6.97-8.67-.47-5.05,0-11.59,0-16.81,0-2.04-.25-4.07,0-6.23.27-2.4.93-4.75,1.84-6.97-3.98-2.64-7.58-5.59-10.1-9.73-9.87-16.27-.94-37,17.34-41.29.82-9.65,5.16-19.7,13.78-24.73,7.92-4.62,17.01-4.22,25.43-1.18,2.84-4.42,4.73-9.52,8.54-13.31,6.24-6.2,17.05-8.7,25.49-6.52,5.29,1.37,9.4,4.71,13.74,7.81,3.71-3.9,8.11-7.32,13.31-8.96,1.72-.54,4.47-1.18,6.24-1.32h5.28ZM123.86,100.86c-1.72,4.44-1.55,9.05-1.5,13.75,0,.63.26,1.21.26,1.9.02,3.7-.57,8.27-.25,11.77.12,1.33.47,2.47,1.24,3.56.46.66,2.49,2.66,3.2,2.8s2.52.21,3.34.25c9.73.49,19.82-.04,29.5-.02,54.19.09,108.47.34,162.63-.24,6.66-.07,13.28-.04,19.91-.24,1.73-.05,5.71.34,7.07-.12,1.53-.52,3.44-3.69,3.58-5.3-.68-7.95,1.32-18.27-.71-25.88-.56-2.1-.44-2.36-2.57-2.95-9.65-2.67-25.66-1.39-35.9-1.26-47.61.58-95.84.76-143.43-.02-11.07-.18-22.57-.91-33.59-.23-4.29.27-8.74.73-12.78,2.21ZM314.22,138.03l-152.76-.03c-.45,4.62-.63,10.98-3.6,14.76-1.58,2.01-3.45,2.45-4.83,5.01-3.32,6.15-3.2,14.62-2.6,21.4.28,3.14,1.23,7.05,1.22,10.08,0,.52-.54,3.99-.72,4.28-.06.1-1.73,1.24-1.87,1.31-2.92,1.42-5.27-.45-6.42-3.07-2.43-5.58-1.99-16.59-10.07-17.28-6.67-.57-11.32,2.17-14.96,7.61-8.51,12.74,3.7,34.06,13.86,42.68,2.51,2.13,5.62,3.6,7.92,5.51,7.31,6.07,7.89,23.94,12.43,32.44s23.85,18.31,32.18,25.64c10.17,8.93,17.48,21.57,30.3,27.05,11.63,4.97,30.32,5.25,42.32,1.46,17.99-5.67,25.5-22.06,39.8-32.66,8.98-6.66,24.54-14.02,28.56-24.71,2.95-7.86,4.54-23.44,10.61-28.98,1.59-1.45,4.03-2.45,5.84-3.76,12.12-8.75,27.05-35.38,13.36-48.08-2.81-2.61-7.77-4.78-11.63-4.7-3.55.08-7.27,7.33-8.16,10.34-1.02,3.48-1.02,11.66-6.25,11.3-4.25-.3-4.61-4.7-4.42-8.05.56-10.34,4.11-21.89-2.44-31.4-1.95-2.82-4.77-3.55-6.07-7.13-1.23-3.39-.93-7.52-1.6-11ZM303.7,311.04c-.2-.22-4.87,2.18-5.39,2.64-1.05.93-2.07,2.59-3.24,3.72-3.24,3.15-7.56,6.43-11.17,9.23-13.62,10.58-22.5,16.69-40.52,17.54-7.06.33-23.03-.12-29.39-2.77-2.35-.98-8.15-4.74-10.49-6.31-3.46-2.31-6.91-5.21-10.3-7.69-3.62-2.64-7.26-4.74-10.39-7.85-2.36-2.34-5.35-3.96-7.68-6.36-.05,7.01-.31,14-.25,21.01.03,3.82,1.03,9.81-.59,13.31-1.07,2.31-4.11,2.89-6.4,3.44-3.71.89-7.07,1.19-10.52,3.15l-1.67,1.21c4.52,2.86,8.51,6.51,12.36,10.2,12.66,12.14,24.93,24.84,37.41,37.21,8.8,8.73,17.64,18.23,26.62,26.64,1.25,1.17,3.38,3.31,4.7,4.18.3.2.56.42.95.28,10.28-9.64,20.19-19.67,30.33-29.43,13.78-13.26,27.57-26.74,41.62-39.72,3.66-3.38,7.81-6.79,11.99-9.48.33-.48-1.87-1.68-2.34-1.85-4.46-1.54-10.28-1.75-14.98-3.25-1.33-.43-2.61-.94-3.75-1.76l-.51-7.89,3.59-29.4ZM472.04,439.64c1.59-18.5-8.63-34.98-22.39-46.28-18.08-14.85-41.87-18.07-64.15-22.57.35,6.78-1.42,13.39-2.13,20.07-1.57,14.66-.98,31.36.72,46.02,1.21,10.49,3.53,20.83,4.53,31.35,8.08-1.75,16.06-4.03,23.98-6.36,8.71-2.56,17.45-5.31,26.03-8.27,11.41-3.94,22.8-8.22,33.42-13.96ZM86.15,468.24c1.14-9.94,3.63-19.46,4.77-29.43,1.66-14.59,2.53-31.44,1.23-46.05-.65-7.27-3.05-14.36-2.88-21.72-15.92,3.8-32.56,5.68-47.58,12.51-19.52,8.88-37.38,27.85-38.54,50.24-.06,1.15-.2,5.16.38,5.88s4.89,2.8,6.02,3.34c5.3,2.54,11.22,4.73,16.75,6.76,19.58,7.19,39.75,12.94,59.85,18.48Z"/>
</svg>