<?xml version="1.0" encoding="UTF-8"?>
<svg id="Layer_1" xmlns="http://www.w3.org/2000/svg" version="1.1" xmlns:xlink="http://www.w3.org/1999/xlink" viewBox="0 0 1366 768">
  <!-- Generator: Adobe Illustrator 29.3.1, SVG Export Plug-In . SVG Version: 2.1.0 Build 151)  -->
  <defs>
    <radialGradient id="radial-gradient" cx="683.83" cy="351.4" fx="697.1" fy="351.4" r="164.8" gradientUnits="userSpaceOnUse">
      <stop offset=".22" stop-color="#0043ce"/>
      <stop offset=".51" stop-color="#0144ce"/>
      <stop offset=".61" stop-color="#0849ce"/>
      <stop offset=".69" stop-color="#1452d0"/>
      <stop offset=".75" stop-color="#255ed1"/>
      <stop offset=".8" stop-color="#3b6ed4"/>
      <stop offset=".85" stop-color="#5683d7"/>
      <stop offset=".89" stop-color="#779bda"/>
      <stop offset=".92" stop-color="#9cb7de"/>
      <stop offset=".96" stop-color="#c7d6e3"/>
      <stop offset=".99" stop-color="#f5f8e8"/>
      <stop offset="1" stop-color="#feffe9"/>
    </radialGradient>
    <linearGradient id="linear-gradient" x1="754.63" y1="386.15" x2="816.08" y2="386.15" gradientUnits="userSpaceOnUse">
      <stop offset="0" stop-color="#83ff00"/>
      <stop offset="1" stop-color="#eaba00"/>
    </linearGradient>
    <linearGradient id="linear-gradient1" x1="569.7" y1="425.32" x2="617" y2="425.32" gradientUnits="userSpaceOnUse">
      <stop offset="0" stop-color="#f6a049"/>
      <stop offset="1" stop-color="#d7572d"/>
    </linearGradient>
    <radialGradient id="radial-gradient1" cx="683.83" cy="342.59" fx="800.66" fy="449.51" r="175.65" gradientUnits="userSpaceOnUse">
      <stop offset="0" stop-color="#891414" stop-opacity=".8"/>
      <stop offset=".35" stop-color="#d61916"/>
      <stop offset=".43" stop-color="#df4b1f"/>
      <stop offset=".61" stop-color="#f5ca35"/>
      <stop offset=".68" stop-color="#ffff3f"/>
      <stop offset="1" stop-color="#ff7f23" stop-opacity=".8"/>
    </radialGradient>
    <linearGradient id="linear-gradient2" x1="599.48" y1="303.8" x2="746.55" y2="303.8" gradientUnits="userSpaceOnUse">
      <stop offset="0" stop-color="#83ff00"/>
      <stop offset="1" stop-color="#eaba00"/>
    </linearGradient>
  </defs>
  <path d="M851.72,264.4c13.47,26.06,21.07,55.64,21.07,87,0,104.82-84.97,189.79-189.79,189.79s-189.79-84.97-189.79-189.79,84.97-189.79,189.79-189.79c73.46,0,137.17,41.73,168.72,102.79" fill="#298c7e"/>
  <circle cx="683.83" cy="351.4" r="165.35" fill="url(#radial-gradient)"/>
  <path d="M802.09,410.66c-14.23,12.48-33.51,11.83-44.49,7.12-.99-.43-1.98-.85-2.97-1.27,2.75-3.06,5.42-6.7,7.73-11,1.16-2.16,3.61-6.84,5.28-13.19.24.11.47.23.71.35,1.47.46,7.67,2.25,13.57-.99,7.24-3.97,9.15-12.79,8.31-18.98-1.08-7.93-7.13-14.64-15.39-17.19.9-.56,12.91-7.74,25.93-1.71,11.64,5.39,14.65,16.96,15,18.43.23,1.62,3.03,23.79-13.67,38.44Z" fill="url(#linear-gradient)" stroke="#000" stroke-miterlimit="10"/>
  <g>
    <path d="M569.7,439.27c4.08-5.07,8.25-10.19,12.4-15.24,3.48-4.22,7.01-8.48,10.51-12.66,4.01.09,8.09.13,12.13.13h.51c3.9,0,7.86-.05,11.76-.13l-7.99,27.29-39.31.61Z" fill="url(#linear-gradient1)"/>
    <path d="M592.84,411.88c3.94.08,7.92.13,11.86.13h.54c3.68,0,7.4-.04,11.08-.12l-7.69,26.28-37.88.59c3.87-4.81,7.81-9.64,11.73-14.4,3.42-4.15,6.9-8.35,10.35-12.47M617.67,410.85c-4.06.09-8.21.15-12.43.15-.18,0-.36,0-.54,0-4.18,0-8.29-.05-12.32-.14-3.55,4.23-7.1,8.52-10.67,12.85-4.43,5.38-8.78,10.74-13.07,16.07,13.58-.21,27.16-.42,40.74-.63,2.76-9.43,5.52-18.87,8.28-28.3h0Z"/>
  </g>
  <path d="M617.25,410.85c-2.51,9.05-5.03,18.1-7.54,27.16l-11.84,42.6h28.65c.22-.9,5.01-20.15,5.23-21.06,1.79-7.21,3.56-14.32,5.16-20.75,24.56-.54,49.11-1.08,73.67-1.63,3.14,14.48,6.29,28.96,9.43,43.44,12.19-.54,24.38-1.07,36.57-1.61-4.35-3.95-11.46-11.44-16.43-22.97-4.32-10.01-5.27-18.98-5.42-24.58,1.05-.5,2.09-1.04,3.15-1.62,3.38-1.86,10.5-5.88,17.18-13.33,2.75-3.06,5.42-6.7,7.73-11,1.16-2.16,3.61-6.84,5.28-13.19,1.67-6.3,2.56-14.25.66-22.99-2.33-10.7-7.75-17.57-8.9-18.98-2.44-3.01-8.84-10.05-22.54-14.83-4.48-1.56-8.88-2.31-8.88-2.31-2.71-.43-5.06-.57-6.86-.6q1.41,9.08,4.24,27.24-2.82-18.16-4.24-27.24c-2.71-17.44-5.43-34.88-8.14-52.32-1.34-8.6-2.67-17.19-4.01-25.78-2.59-16.65-5.18-33.3-7.77-49.95-9.05.13-18.11.26-27.16.39l-13.86,49.87-7.82,28.15-12.9,46.43c-2.23,8.02-4.45,16.03-6.68,24.05-5.32,19.13-10.63,38.27-15.95,57.4ZM672.57,296.21c3.06.08,6.13.15,9.21.21,3.04.06,6.08.12,9.1.17,1.57,12.41,3.13,24.81,4.7,37.22-2.73.04-6.18.08-8.95.12-2.76.04-4.85.07-4.85.07,0,0-4.57.05-9.15.1-4.58.05-9.19.1-9.27.1l9.2-38ZM643.59,411.93c3.54-14.26,7.09-28.52,10.63-42.79,15.78,8.83,31.56,17.66,47.34,26.49,1.07,4.91,2.13,9.81,3.2,14.72-2.58.25-5.26.45-8.05.63,0,0-4.11.27-8.66.46-5.99.25-22.43.5-44.46.48q-2.23,8.96-6.68,26.87,4.45-17.91,6.68-26.87M725.77,359.86c1.43.46,2.88,1.04,4.39,1.76,3.56,1.71,9.99,4.9,13.05,11.86,1.11,2.53,1.58,5.1,1.64,7.53-5.69-2.77-11.38-5.54-17.08-8.32-.67-4.28-1.33-8.56-2-12.85" fill="url(#radial-gradient1)" stroke="#000" stroke-miterlimit="10"/>
  <path d="M746.55,254.15c-5.85,8.69-11.69,17.38-17.53,26.08-5.35.02-10.69.05-16.04.07-19.85.1-39.69.2-59.54.29-2.77.07-11.04.62-18.37,6.79-2.43,2.04-11.19,10.11-10.07,21.45.97,9.94,8.91,16.18,10.95,17.76,1.3,1.01,2.69,1.95,4.35,2.82l-6.68,24.04c-5.48-2.23-11.05-5.41-16.34-10.22-4.05-3.69-17.33-15.78-17.79-34.4-.53-21.55,16.54-35.69,20.27-38.74,7.69-6.3,15.96-9.35,20.17-10.87,8.19-2.95,15.46-4.01,20.67-4.39,16.12-.11,32.25-.21,48.37-.31,6.6-.03,13.2-.06,19.81-.09,5.92-.1,11.84-.19,17.77-.28Z" fill="url(#linear-gradient2)" stroke="#000" stroke-miterlimit="10"/>
  <g>
    <polygon points="787.2 335.63 805.74 330.32 810.42 311.6 796.55 298.2 778 303.51 773.33 322.22 787.2 335.63" fill="#c1b4b8" stroke="#000" stroke-miterlimit="10"/>
    <polygon points="789.52 308.69 791.45 306.69 790.68 304.03 787.99 303.35 786.06 305.35 786.83 308.02 789.52 308.69" fill="#c1b4b8" stroke="#000" stroke-miterlimit="10"/>
    <polygon points="797.77 310 800.36 311.01 802.52 309.28 802.11 306.54 799.53 305.53 797.36 307.26 797.77 310" fill="#c1b4b8" stroke="#000" stroke-miterlimit="10"/>
    <polygon points="802.68 322.37 805.06 320.95 805.01 318.17 802.59 316.83 800.21 318.25 800.26 321.03 802.68 322.37" fill="#c1b4b8" stroke="#000" stroke-miterlimit="10"/>
    <polygon points="792.45 328.37 794.99 329.47 797.22 327.82 796.91 325.07 794.36 323.96 792.14 325.61 792.45 328.37" fill="#c1b4b8" stroke="#000" stroke-miterlimit="10"/>
    <polygon points="782.74 325.66 785.36 326.56 787.46 324.75 786.93 322.02 784.31 321.12 782.21 322.93 782.74 325.66" fill="#c1b4b8" stroke="#000" stroke-miterlimit="10"/>
    <polygon points="781.69 316.96 783.78 315.14 783.26 312.42 780.63 311.51 778.54 313.33 779.06 316.05 781.69 316.96" fill="#c1b4b8" stroke="#000" stroke-miterlimit="10"/>
    <polygon points="790.47 318.53 793.23 318.75 794.81 316.46 793.61 313.96 790.85 313.74 789.27 316.02 790.47 318.53" fill="#c1b4b8" stroke="#000" stroke-miterlimit="10"/>
    <line x1="789.52" y1="308.69" x2="790.85" y2="313.74" fill="none" stroke="#000" stroke-miterlimit="10"/>
    <line x1="783.78" y1="315.14" x2="789.27" y2="316.02" fill="none" stroke="#000" stroke-miterlimit="10"/>
    <line x1="786.93" y1="322.02" x2="790.47" y2="318.53" fill="none" stroke="#000" stroke-miterlimit="10"/>
    <line x1="797.77" y1="310" x2="793.61" y2="313.96" fill="none" stroke="#000" stroke-miterlimit="10"/>
    <line x1="800.21" y1="318.25" x2="794.81" y2="316.46" fill="none" stroke="#000" stroke-miterlimit="10"/>
    <line x1="794.36" y1="323.96" x2="793.23" y2="318.75" fill="none" stroke="#000" stroke-miterlimit="10"/>
    <line x1="786.83" y1="308.02" x2="783.26" y2="312.42" fill="none" stroke="#000" stroke-miterlimit="10"/>
    <line x1="797.36" y1="307.26" x2="791.45" y2="306.69" fill="none" stroke="#000" stroke-miterlimit="10"/>
    <line x1="802.59" y1="316.83" x2="800.36" y2="311.01" fill="none" stroke="#000" stroke-miterlimit="10"/>
    <line x1="796.91" y1="325.07" x2="800.26" y2="321.03" fill="none" stroke="#000" stroke-miterlimit="10"/>
    <line x1="787.46" y1="324.75" x2="792.14" y2="325.61" fill="none" stroke="#000" stroke-miterlimit="10"/>
    <line x1="781.69" y1="316.96" x2="784.31" y2="321.12" fill="none" stroke="#000" stroke-miterlimit="10"/>
    <line x1="782.21" y1="322.93" x2="773.33" y2="322.22" fill="none" stroke="#000" stroke-miterlimit="10"/>
    <line x1="792.45" y1="328.37" x2="787.2" y2="335.63" fill="none" stroke="#000" stroke-miterlimit="10"/>
    <line x1="802.68" y1="322.37" x2="806.01" y2="329.23" fill="none" stroke="#000" stroke-miterlimit="10"/>
    <line x1="802.52" y1="309.28" x2="810.42" y2="311.6" fill="none" stroke="#000" stroke-miterlimit="10"/>
    <line x1="778" y1="303.51" x2="780.63" y2="311.51" fill="none" stroke="#000" stroke-miterlimit="10"/>
    <line x1="790.68" y1="304.03" x2="796.55" y2="298.2" fill="none" stroke="#000" stroke-miterlimit="10"/>
    <line x1="802.11" y1="306.54" x2="803.47" y2="305.93" fill="none" stroke="#000" stroke-miterlimit="10"/>
    <line x1="782.74" y1="325.66" x2="779.78" y2="328.45" fill="none" stroke="#000" stroke-miterlimit="10"/>
    <line x1="803.47" y1="305.93" x2="804.31" y2="305.7" fill="none" stroke="#000" stroke-miterlimit="10"/>
    <line x1="794.99" y1="329.47" x2="796.73" y2="332.9" fill="none" stroke="#000" stroke-miterlimit="10"/>
    <line x1="805.06" y1="320.95" x2="807.92" y2="321.62" fill="none" stroke="#000" stroke-miterlimit="10"/>
    <line x1="778.54" y1="313.33" x2="775.66" y2="312.87" fill="none" stroke="#000" stroke-miterlimit="10"/>
    <path d="M787.99,303.35c-.23-.74-.46-1.47-.68-2.21" fill="none" stroke="#000" stroke-miterlimit="10"/>
    <line x1="805.01" y1="318.17" x2="810.42" y2="311.6" fill="none" stroke="#000" stroke-miterlimit="10"/>
    <line x1="797.22" y1="327.82" x2="805.74" y2="330.32" fill="none" stroke="#000" stroke-miterlimit="10"/>
    <line x1="785.36" y1="326.56" x2="787.2" y2="335.63" fill="none" stroke="#000" stroke-miterlimit="10"/>
    <line x1="779.06" y1="316.05" x2="773.33" y2="322.22" fill="none" stroke="#000" stroke-miterlimit="10"/>
    <line x1="786.06" y1="305.35" x2="778" y2="303.51" fill="none" stroke="#000" stroke-miterlimit="10"/>
    <line x1="799.53" y1="305.53" x2="796.55" y2="298.2" fill="none" stroke="#000" stroke-miterlimit="10"/>
  </g>
</svg>