<?xml version="1.0" encoding="UTF-8"?>
<svg id="Layer_1" xmlns="http://www.w3.org/2000/svg" version="1.1" viewBox="0 0 467.28 558">
  <!-- Generator: Adobe Illustrator 29.3.1, SVG Export Plug-In . SVG Version: 2.1.0 Build 151)  -->
  <path d="M250.91,557.96c-.09,0-.74-.51-1.62-.51-82.04-.13-164.07.22-246.11-.03-.89-.3-1.03-2.63-1.19-3.6-3.9-23.74-.83-70.54,18.89-87,18.77-15.65,54.1-33.1,76.82-43.12,24.28-10.72,50.25-6.12,63.43-34.44,5.76-12.37,6.98-26.66,7.68-40.15-12.39-8-20.16-16.96-26.25-30.38-5.8-12.78-5.51-26.88-16.13-36.65-8.09-7.45-12.71-8.83-18.25-19.65-18.72-36.53-11.37-94.42,6.55-130.2,23.24-46.39,67.86-72.85,119.4-75.87,1.03-.51,2.11-7.18,2.63-8.88,6.29-20.51,15.8-16.39,33.83-19.9,16.33-3.18,16.42-7.63,28.34-16.28,22.92-16.65,60.8-13.52,82,4.75,16.78,14.46,19.87,31.05,21.12,52.28,1.63,27.44-.6,55.09-1,82.52-.42,29.16-2.51,77.81,17.53,101.02,7.62,8.83,19.94,11.34,30.41,15.4.02,21.39-21.87,34.94-39.99,40.73s-36.78,6.81-55.12,4.73c-7.39-.84-14.62-2.57-21.88-4.03-7.72,7.36-10.48,18.08-16.81,26.39-4.26,5.59-9.95,9.54-15.26,14.02,1.31,26.15,5.84,56.7,33.86,66.71,8.54,3.05,9.32.7,16.69,1.06,10.76.53,34.51,13.19,44.85,18.48,16.14,8.26,43.33,21.98,56.13,34.07,11.13,10.51,15.19,41.63,15.83,56.38v23.99l-.96,8.16c-71.8-.08-143.61.11-215.41,0ZM331.03,90.68c6.03-36.75-43.29-57.31-72.93-50.62-8.74,1.97-9.58,7.99-10.02,16.03,9.75,3.23,19.96,4.99,29.8,7.86,11.87,3.46,21.14,8.7,31.03,15.99,4,2.95,9.82,9.06,14.33,10.14,1.03.25,7.49.92,7.8.6ZM356.93,214.93c.57-13.19.77-26.6.23-39.81-24.78-19.54-56.69-30.86-87.86-35.43-53.65-7.86-113.83,2.13-157.51,35.19l-.49.95c-.49,13.17-.57,26.37-.47,39.58,15.2-4.65,29.13-12.52,44.02-18.11,55.32-20.76,113.61-20.9,167.88,3.15,11.29,5,22.08,11.56,34.22,14.48ZM226.35,194.45c-27.33,1.07-81.23,12.42-102.53,29.88-19.44,15.94-9.3,33.74,7.68,45.98,2.78,2.01,6.76,3.16,8.77,4.67,2.88,2.16,6.01,18.01,7.38,22.37,13.13,41.85,54.76,80.7,101.35,68.48,23.85-6.26,58.48-33.38,67.88-56.38,4.16-10.17,6.27-21.33,8.18-32.12,12.44-6.57,25.15-14.43,28.39-29.18.61-2.77,1.97-14.41.65-16.21-.21-.29-2.36-1.85-2.95-2.32-31.47-25.17-85.15-36.72-124.79-35.16ZM181.35,363.66c-2.38,12.32-4.87,26.01-11.27,36.95-8.89,15.21-26.29,21.67-40.03,31.49,2.61,6.12,5.61,12.49,8.83,18.41,13.46,24.8,22.22,31.38,51.32,32.63,17.39.75,34.97.2,52.29-.04,21.82-.3,48.23,1.67,67.75-9.49,15.09-8.63,23.16-25.13,28.42-41.06-10.21-4.72-20.81-9.16-29.23-16.82-14.8-13.46-19.26-33.47-22.07-52.54-19.33,11.32-40.78,22.07-63.98,19.13-11.77-1.49-23.39-7.02-33.36-13.17-1.08-.67-8.24-5.91-8.67-5.48ZM68.12,456.74c-16.56,4.36-34.61,11.59-44.33,26.43-7.89,12.04-8.89,26.98-9.9,40.96l.5,21.37,61.41-.96-7.68-87.8ZM453.85,545.01c.89-22.98,2.12-53.41-16.3-70.29-9.84-9.02-23.97-13.75-36.7-17.03l-7.92,87.32h60.93Z"/>
</svg>